<svg width="1012" height="313" viewBox="0 0 1012 313" fill="none" xmlns="http://www.w3.org/2000/svg">
<path d="M832.5 281C937.013 289.217 989.28 279.447 1007 253.85V0H6V86.0841C6 125.213 133.514 235.264 278.747 225.726C423.981 216.188 386.165 339.205 538 281C689.835 222.795 701.859 270.729 832.5 281Z" fill="url(#paint0_linear)"/>
<g filter="url(#filter0_d)">
<path d="M237.857 153.68C237.857 154.373 236.231 154.933 232.977 155.36C229.777 155.787 226.524 156 223.217 156C219.964 156 217.857 155.813 216.897 155.44C215.991 155.067 215.537 154.48 215.537 153.68V104.48C215.537 103.147 217.084 101.947 220.177 100.88C223.271 99.76 226.631 99.2 230.257 99.2C235.324 99.2 237.857 100.4 237.857 102.8V120.4H244.977V104.48C244.977 103.147 246.524 101.947 249.617 100.88C252.764 99.76 256.151 99.2 259.777 99.2C264.791 99.2 267.297 100.4 267.297 102.8V153.68C267.297 154.373 265.671 154.933 262.417 155.36C259.164 155.787 255.911 156 252.657 156C249.404 156 247.297 155.813 246.337 155.44C245.431 155.067 244.977 154.48 244.977 153.68V135.36H237.857V153.68ZM298.382 154.08C298.382 154.667 296.756 155.147 293.502 155.52C290.249 155.84 286.969 156 283.662 156C280.409 156 278.329 155.867 277.422 155.6C276.516 155.28 276.062 154.773 276.062 154.08V104.32C276.062 103.147 277.609 102 280.702 100.88C283.796 99.7067 287.262 99.12 291.102 99.12C294.516 99.12 296.756 99.84 297.822 101.28C298.196 101.813 298.382 102.347 298.382 102.88V154.08ZM307.772 152.16C307.399 151.093 307.212 149.573 307.212 147.6C307.212 145.627 307.772 144 308.892 142.72C310.012 141.387 312.279 140.72 315.692 140.72C319.106 140.72 321.372 141.387 322.492 142.72C323.666 144.053 324.252 146.08 324.252 148.8C324.252 161.76 319.879 168.24 311.132 168.24C310.332 168.24 309.532 167.28 308.732 165.36C307.986 163.44 307.612 161.92 307.612 160.8C307.612 159.68 307.799 159.12 308.172 159.12C309.239 159.12 310.119 158.853 310.812 158.32C311.506 157.84 311.932 157.333 312.092 156.8L312.332 156C310.199 156 308.679 154.72 307.772 152.16ZM375.739 154.08C375.739 154.667 374.112 155.147 370.859 155.52C367.605 155.84 364.325 156 361.019 156C357.765 156 355.685 155.867 354.779 155.6C353.872 155.28 353.419 154.773 353.419 154.08V104.32C353.419 103.147 354.965 102 358.059 100.88C361.152 99.7067 364.619 99.12 368.459 99.12C371.872 99.12 374.112 99.84 375.179 101.28C375.552 101.813 375.739 102.347 375.739 102.88V154.08ZM389.369 121.04C387.822 121.04 386.702 119.787 386.009 117.28C385.315 114.613 384.915 111.947 384.809 109.28C384.649 105.333 384.569 101.52 384.569 97.84C384.569 95.0133 388.889 93.6 397.529 93.6C399.022 93.6 399.955 94.56 400.329 96.48C400.702 98.4 400.889 101.707 400.889 106.4C400.889 116.16 397.049 121.04 389.369 121.04ZM421.242 156C419.909 156 417.962 156 415.402 156C412.895 156 411.189 155.813 410.282 155.44C409.375 155.067 408.922 154.48 408.922 153.68V103.2C408.922 101.973 410.549 101.013 413.802 100.32C417.109 99.5733 420.629 99.2 424.362 99.2C428.095 99.2 430.762 99.68 432.362 100.64C433.962 101.6 434.895 102.613 435.162 103.68L440.602 124.8H441.322L446.442 104.64C446.815 103.2 448.549 101.947 451.642 100.88C454.789 99.76 458.229 99.2 461.962 99.2C465.695 99.2 468.442 99.4933 470.202 100.08C472.015 100.667 472.922 101.413 472.922 102.32V153.68C472.922 154.373 471.402 154.933 468.362 155.36C465.322 155.787 461.615 156 457.242 156C452.869 156 450.682 155.227 450.682 153.68C450.682 149.467 451.135 141.973 452.042 131.2H451.322L447.162 152.08C447.002 152.88 446.335 153.467 445.162 153.84C444.042 154.213 442.335 154.4 440.042 154.4C437.749 154.4 436.335 154.24 435.802 153.92C435.322 153.6 435.002 152.987 434.842 152.08L430.522 131.2H429.802C430.762 142.187 431.242 149.68 431.242 153.68C431.242 155.067 427.909 155.84 421.242 156ZM537.841 153.68C537.841 154.373 536.215 154.933 532.961 155.36C529.708 155.787 526.455 156 523.201 156C520.001 156 517.921 155.84 516.961 155.52C516.001 155.147 515.521 154.533 515.521 153.68V139.76C504.961 118.16 499.681 106.427 499.681 104.56C499.681 103.44 501.468 102.267 505.041 101.04C508.615 99.8133 512.375 99.2 516.321 99.2C521.388 99.2 524.081 100.693 524.401 103.68L526.561 125.2H527.441L528.961 104.24C529.068 102.747 530.961 101.547 534.641 100.64C538.321 99.68 541.815 99.2 545.121 99.2C548.428 99.2 550.721 99.68 552.001 100.64C553.281 101.6 553.921 102.613 553.921 103.68C553.921 104.693 548.561 116.72 537.841 139.76V153.68ZM612.021 133.68C612.021 141.36 609.807 147.12 605.381 150.96C601.007 154.747 594.634 156.64 586.261 156.64C577.941 156.64 571.541 154.747 567.061 150.96C562.581 147.12 560.341 141.36 560.341 133.68V104.32C560.341 102.987 561.834 101.787 564.821 100.72C567.861 99.6533 571.381 99.12 575.381 99.12C578.581 99.12 580.661 99.7333 581.621 100.96C582.314 101.92 582.661 102.747 582.661 103.44V127.28C582.661 133.307 582.874 137.307 583.301 139.28C583.781 141.2 584.767 142.16 586.261 142.16C587.754 142.16 588.687 141.227 589.061 139.36C589.487 137.44 589.701 133.387 589.701 127.2V104.32C589.701 102.987 591.194 101.787 594.181 100.72C597.221 99.6533 600.714 99.12 604.661 99.12C608.021 99.12 610.154 99.7333 611.061 100.96C611.701 101.92 612.021 102.747 612.021 103.44V133.68ZM618.387 104.88C618.387 104.24 619.081 103.493 620.467 102.64C621.854 101.733 623.801 100.933 626.307 100.24C628.867 99.5467 631.641 99.2 634.627 99.2C637.614 99.2 639.801 99.6267 641.187 100.48C642.574 101.333 643.321 102.267 643.427 103.28L646.227 132.4H647.347L649.827 104C649.987 102.507 651.801 101.333 655.267 100.48C658.734 99.6267 661.961 99.2 664.947 99.2C667.934 99.2 670.147 99.4667 671.587 100C673.027 100.48 673.934 100.987 674.307 101.52C674.734 102.053 674.947 102.56 674.947 103.04C674.947 103.467 674.547 104.72 673.747 106.8C673.001 108.827 672.201 111.013 671.347 113.36C668.521 120.827 663.747 134.213 657.027 153.52C656.441 155.173 651.854 156 643.267 156C640.601 156 638.841 155.813 637.987 155.44C637.134 155.067 636.547 154.427 636.227 153.52C633.081 144.453 629.321 134.16 624.947 122.64C620.574 111.12 618.387 105.2 618.387 104.88ZM693.002 151.92C692.895 153.467 692.069 154.533 690.522 155.12C689.029 155.707 686.309 156 682.362 156C678.415 156 675.109 155.653 672.442 154.96C669.829 154.213 668.522 153.28 668.522 152.16C668.522 150.88 670.895 142.72 675.642 127.68C680.389 112.587 683.109 103.893 683.802 101.6C684.069 100.907 686.202 100.347 690.202 99.92C694.255 99.44 698.575 99.2 703.162 99.2C707.802 99.2 710.362 100 710.842 101.6C720.922 135.093 725.962 152.107 725.962 152.64C725.962 153.173 725.642 153.707 725.002 154.24C723.509 155.413 720.549 156 716.122 156C706.682 156 701.855 154.88 701.642 152.64L701.082 147.44H693.402L693.002 151.92ZM699.402 132.24L698.202 117.84H696.442L695.082 132.24H699.402ZM739.104 156C736.438 156 734.651 155.867 733.744 155.6C732.838 155.28 732.384 154.773 732.384 154.08V104.32C732.384 103.147 733.931 102 737.024 100.88C740.118 99.7067 743.584 99.12 747.424 99.12C750.838 99.12 753.078 99.84 754.144 101.28C754.518 101.813 754.704 102.347 754.704 102.88V138.32C761.211 137.893 766.118 137.68 769.424 137.68C770.544 137.68 771.104 139.467 771.104 143.04C771.104 146.56 770.864 149.6 770.384 152.16C769.904 154.72 769.264 156 768.464 156H739.104ZM777.58 100C777.527 99.4133 779.047 98.96 782.14 98.64C785.233 98.2667 788.86 98.08 793.02 98.08C797.18 98.08 799.26 98.6933 799.26 99.92C799.26 101.467 798.78 114.32 797.82 138.48C797.767 139.813 796.807 141.013 794.94 142.08C793.073 143.147 790.433 143.68 787.02 143.68C782.38 143.68 779.953 142.427 779.74 139.92L777.58 100ZM798.38 155.28C798.38 158 797.5 159.867 795.74 160.88C794.033 161.947 791.607 162.48 788.46 162.48C785.367 162.48 782.993 162 781.34 161.04C779.687 160.133 778.86 158.213 778.86 155.28C778.86 150.48 782.113 148.08 788.62 148.08C795.127 148.08 798.38 150.48 798.38 155.28Z" fill="#FDE3CA"/>
</g>
<defs>
<filter id="filter0_d" x="195.537" y="93.6" width="603.722" height="97.64" filterUnits="userSpaceOnUse" color-interpolation-filters="sRGB">
<feFlood flood-opacity="0" result="BackgroundImageFix"/>
<feColorMatrix in="SourceAlpha" type="matrix" values="0 0 0 0 0 0 0 0 0 0 0 0 0 0 0 0 0 0 127 0" result="hardAlpha"/>
<feOffset dx="-10" dy="13"/>
<feGaussianBlur stdDeviation="5"/>
<feColorMatrix type="matrix" values="0 0 0 0 0.996078 0 0 0 0 0.85098 0 0 0 0 0.717647 0 0 0 0.17 0"/>
<feBlend mode="normal" in2="BackgroundImageFix" result="effect1_dropShadow"/>
<feBlend mode="normal" in="SourceGraphic" in2="effect1_dropShadow" result="shape"/>
</filter>
<linearGradient id="paint0_linear" x1="6.00001" y1="-2.21868e-05" x2="901.05" y2="460.801" gradientUnits="userSpaceOnUse">
<stop stop-color="#8ECAE6"/>
<stop offset="1" stop-color="#219EBC"/>
</linearGradient>
</defs>
</svg>
